# xmcd CD database file
#
# Track frame offsets:
#	150
#	38403
#	62343
#	95188
#	121687
#	153193
#	184228
#	213464
#	229873
#	261217
#	288056
#	327656
#
# Disc length: 4711 seconds
#
# Revision: 0
# Processed by: cddbd v1.5.2PL0 Copyright (c) Steve Scherf et al.
# Submitted via: CDex 1.70beta2
#
DISCID=a212650c
DTITLE=Gerry Mulligan - All Star Groups CD1
DYEAR=1957
DGENRE=Jazz
TTITLE0='Round Midnight
TTITLE1=Rhythm-A-Ning
TTITLE2=Sweet and Lovely
TTITLE3=Decidedly
TTITLE4=Straight, No Chaser
TTITLE5=I Mean You
TTITLE6=Let's Fall In Love
TTITLE7=Anything Goes
TTITLE8=Too Close for Comfort
TTITLE9=That Old Feeling
TTITLE10=This Can't Be Love
TTITLE11=A Ballad
EXTD=YEAR: 1957
EXTT0=
EXTT1=
EXTT2=
EXTT3=
EXTT4=
EXTT5=
EXTT6=
EXTT7=
EXTT8=
EXTT9=
EXTT10=
EXTT11=
PLAYORDER=
